{
	"asset":{
		"generator":"Khronos glTF Blender I/O v3.5.30",
		"version":"2.0"
	},
	"scene":0,
	"scenes":[
		{
			"name":"Scene",
			"nodes":[
				0
			]
		}
	],
	"nodes":[
		{
			"mesh":0,
			"name":"Cube.001",
			"scale":[
				11.640480995178223,
				1,
				11.640480995178223
			],
			"translation":[
				0,
				11.414457321166992,
				0
			]
		}
	],
	"meshes":[
		{
			"name":"Cube.001",
			"primitives":[
				{
					"attributes":{
						"POSITION":0,
						"TEXCOORD_0":1,
						"NORMAL":2
					},
					"indices":3
				}
			]
		}
	],
	"accessors":[
		{
			"bufferView":0,
			"componentType":5126,
			"count":172,
			"max":[
				1,
				1,
				1
			],
			"min":[
				-1,
				-1,
				-1
			],
			"type":"VEC3"
		},
		{
			"bufferView":1,
			"componentType":5126,
			"count":172,
			"type":"VEC2"
		},
		{
			"bufferView":2,
			"componentType":5126,
			"count":172,
			"type":"VEC3"
		},
		{
			"bufferView":3,
			"componentType":5123,
			"count":576,
			"type":"SCALAR"
		}
	],
	"bufferViews":[
		{
			"buffer":0,
			"byteLength":2064,
			"byteOffset":0,
			"target":34962
		},
		{
			"buffer":0,
			"byteLength":1376,
			"byteOffset":2064,
			"target":34962
		},
		{
			"buffer":0,
			"byteLength":2064,
			"byteOffset":3440,
			"target":34962
		},
		{
			"buffer":0,
			"byteLength":1152,
			"byteOffset":5504,
			"target":34963
		}
	],
	"buffers":[
		{
			"byteLength":6656,
			"uri":"data:application/octet-stream;base64,"
		}
	]
}
