{
	"asset":{
		"generator":"Khronos glTF Blender I/O v3.5.30",
		"version":"2.0"
	},
	"scene":0,
	"scenes":[
		{
			"name":"Scene",
			"nodes":[
				0,
				1,
				2
			]
		}
	],
	"nodes":[
		{
			"mesh":0,
			"name":"Cube",
			"translation":[
				0,
				-2.6216678619384766,
				0
			]
		},
		{
			"mesh":1,
			"name":"Icosphere",
			"translation":[
				0,
				4.617624759674072,
				0
			]
		},
		{
			"mesh":2,
			"name":"Cube.001",
			"scale":[
				8.470451354980469,
				8.470451354980469,
				8.470451354980469
			],
			"translation":[
				0,
				2.0687952041625977,
				0
			]
		}
	],
	"animations":[
		{
			"channels":[
				{
					"sampler":0,
					"target":{
						"node":1,
						"path":"translation"
					}
				},
				{
					"sampler":1,
					"target":{
						"node":1,
						"path":"rotation"
					}
				},
				{
					"sampler":2,
					"target":{
						"node":1,
						"path":"scale"
					}
				}
			],
			"name":"IcosphereAction",
			"samplers":[
				{
					"input":12,
					"interpolation":"LINEAR",
					"output":13
				},
				{
					"input":12,
					"interpolation":"LINEAR",
					"output":14
				},
				{
					"input":12,
					"interpolation":"LINEAR",
					"output":15
				}
			]
		}
	],
	"materials":[
		{
			"doubleSided":true,
			"name":"Material.002",
			"pbrMetallicRoughness":{
				"baseColorFactor":[
					0.0018562390469014645,
					0.4262634217739105,
					0.8000000715255737,
					1
				],
				"metallicFactor":0,
				"roughnessFactor":0.5
			}
		},
		{
			"doubleSided":true,
			"name":"Material.003",
			"pbrMetallicRoughness":{
				"baseColorFactor":[
					0.8000000715255737,
					0.15751583874225616,
					0.0254744291305542,
					1
				],
				"metallicFactor":0,
				"roughnessFactor":0.5
			}
		},
		{
			"doubleSided":true,
			"name":"Material.004",
			"pbrMetallicRoughness":{
				"baseColorFactor":[
					0.34810614585876465,
					0.8000000715255737,
					0.6033234596252441,
					1
				],
				"metallicFactor":0,
				"roughnessFactor":0.5
			}
		}
	],
	"meshes":[
		{
			"name":"Cube",
			"primitives":[
				{
					"attributes":{
						"POSITION":0,
						"TEXCOORD_0":1,
						"NORMAL":2
					},
					"indices":3,
					"material":0
				}
			]
		},
		{
			"name":"Icosphere",
			"primitives":[
				{
					"attributes":{
						"POSITION":4,
						"TEXCOORD_0":5,
						"NORMAL":6
					},
					"indices":7,
					"material":1
				}
			]
		},
		{
			"name":"Cube.002",
			"primitives":[
				{
					"attributes":{
						"POSITION":8,
						"TEXCOORD_0":9,
						"NORMAL":10
					},
					"indices":11,
					"material":2
				}
			]
		}
	],
	"accessors":[
		{
			"bufferView":0,
			"componentType":5126,
			"count":34,
			"max":[
				3.7220370769500732,
				3.7220370769500732,
				5.7883124351501465
			],
			"min":[
				-3.7220370769500732,
				-3.7220370769500732,
				-3.7220370769500732
			],
			"type":"VEC3"
		},
		{
			"bufferView":1,
			"componentType":5126,
			"count":34,
			"type":"VEC2"
		},
		{
			"bufferView":2,
			"componentType":5126,
			"count":34,
			"type":"VEC3"
		},
		{
			"bufferView":3,
			"componentType":5123,
			"count":60,
			"type":"SCALAR"
		},
		{
			"bufferView":4,
			"componentType":5126,
			"count":240,
			"max":[
				3.539872646331787,
				3.7220370769500732,
				3.722036838531494
			],
			"min":[
				-3.539872646331787,
				-3.7220370769500732,
				-3.722036838531494
			],
			"type":"VEC3"
		},
		{
			"bufferView":5,
			"componentType":5126,
			"count":240,
			"type":"VEC2"
		},
		{
			"bufferView":6,
			"componentType":5126,
			"count":240,
			"type":"VEC3"
		},
		{
			"bufferView":7,
			"componentType":5123,
			"count":240,
			"type":"SCALAR"
		},
		{
			"bufferView":8,
			"componentType":5126,
			"count":52,
			"max":[
				1,
				1,
				1
			],
			"min":[
				-1,
				-1,
				-1
			],
			"type":"VEC3"
		},
		{
			"bufferView":9,
			"componentType":5126,
			"count":52,
			"type":"VEC2"
		},
		{
			"bufferView":10,
			"componentType":5126,
			"count":52,
			"type":"VEC3"
		},
		{
			"bufferView":11,
			"componentType":5123,
			"count":84,
			"type":"SCALAR"
		},
		{
			"bufferView":12,
			"componentType":5126,
			"count":120,
			"max":[
				5
			],
			"min":[
				0.041666666666666664
			],
			"type":"SCALAR"
		},
		{
			"bufferView":13,
			"componentType":5126,
			"count":120,
			"type":"VEC3"
		},
		{
			"bufferView":14,
			"componentType":5126,
			"count":120,
			"type":"VEC4"
		},
		{
			"bufferView":15,
			"componentType":5126,
			"count":120,
			"type":"VEC3"
		}
	],
	"bufferViews":[
		{
			"buffer":0,
			"byteLength":408,
			"byteOffset":0,
			"target":34962
		},
		{
			"buffer":0,
			"byteLength":272,
			"byteOffset":408,
			"target":34962
		},
		{
			"buffer":0,
			"byteLength":408,
			"byteOffset":680,
			"target":34962
		},
		{
			"buffer":0,
			"byteLength":120,
			"byteOffset":1088,
			"target":34963
		},
		{
			"buffer":0,
			"byteLength":2880,
			"byteOffset":1208,
			"target":34962
		},
		{
			"buffer":0,
			"byteLength":1920,
			"byteOffset":4088,
			"target":34962
		},
		{
			"buffer":0,
			"byteLength":2880,
			"byteOffset":6008,
			"target":34962
		},
		{
			"buffer":0,
			"byteLength":480,
			"byteOffset":8888,
			"target":34963
		},
		{
			"buffer":0,
			"byteLength":624,
			"byteOffset":9368,
			"target":34962
		},
		{
			"buffer":0,
			"byteLength":416,
			"byteOffset":9992,
			"target":34962
		},
		{
			"buffer":0,
			"byteLength":624,
			"byteOffset":10408,
			"target":34962
		},
		{
			"buffer":0,
			"byteLength":168,
			"byteOffset":11032,
			"target":34963
		},
		{
			"buffer":0,
			"byteLength":480,
			"byteOffset":11200
		},
		{
			"buffer":0,
			"byteLength":1440,
			"byteOffset":11680
		},
		{
			"buffer":0,
			"byteLength":1920,
			"byteOffset":13120
		},
		{
			"buffer":0,
			"byteLength":1440,
			"byteOffset":15040
		}
	],
	"buffers":[
		{
			"byteLength":16480,
			"uri":"data:application/octet-stream;base64,"
		}
	]
}
